<?xml version="1.0" encoding="UTF-8"?>
<svg width="22px" height="22px" viewBox="0 0 22 22" version="1.1" xmlns="http://www.w3.org/2000/svg" xmlns:xlink="http://www.w3.org/1999/xlink">
    <!-- Generator: sketchtool 58 (101010) - https://sketch.com -->
    <title>5FB8AF6E-AFF0-4826-A5C0-481ED0B86079</title>
    <desc>Created with sketchtool.</desc>
    <g id="🛬-Landing-Page" stroke="none" stroke-width="1" fill="none" fill-rule="evenodd">
        <g id="BTH__Account--balance" transform="translate(-438.000000, -272.000000)" fill="#00D59F" fill-rule="nonzero">
            <g id="03__components-/-account-/-balance-/-table-copy-03__components-/-account-/-balance-/-table" transform="translate(425.000000, 255.000000)">
                <g id="01__assets-/-logos-/-btc-Copy-1-01__assets-/-logos-/-bth" transform="translate(12.000000, 16.000000)">
                    <path d="M12,1 C18.0751322,1 23,5.92486775 23,12 C23,18.0751322 18.0751322,23 12,23 C5.92486775,23 1,18.0751322 1,12 C1,5.92486775 5.92486775,1 12,1 Z M11.5616153,5.10289389 L10.3917876,5.40315601 L10.8949246,7.36375642 L9.95884024,7.60537476 L9.45537008,5.65103907 L8.28554235,5.95130118 L8.78867933,7.9119016 L6.37620579,8.53351832 L6.69720504,9.78275701 L7.66927265,9.53276099 C7.82397225,9.49282971 7.98818074,9.51615518 8.12568608,9.59759354 C8.23569035,9.66274424 8.3213763,9.76080617 8.37150861,9.87677806 L8.40226598,9.9668807 L9.751529,15.2239514 C9.80653603,15.4389413 9.67735708,15.6579438 9.46277405,15.7134899 L8.611021,15.9329036 L8.66107186,17.4186451 L11.0706949,16.7985853 L11.5803103,18.755627 L12.7495457,18.454364 L12.2460756,16.4927998 L13.1818637,16.252553 L13.685519,18.2140802 L14.8547544,17.9128172 L14.3493962,15.9436167 C14.5475266,15.8917195 14.717966,15.8476811 14.8358743,15.8171359 C15.7005102,15.59446 16.3997044,15.0868688 16.8228045,14.4539088 L16.8370941,14.4327793 L16.8380567,14.4322603 L16.8449794,14.4223998 L16.8541603,14.4075721 L16.8587508,14.4001582 L16.8679317,14.3853304 L16.8725222,14.3779166 L16.8807406,14.3636819 L16.885331,14.356268 L16.8972514,14.3351755 L16.9054698,14.3209409 L16.9091718,14.314083 L16.9173902,14.2998484 L16.9210922,14.2929906 L16.9284962,14.2792749 L16.9321982,14.272417 L16.9396021,14.2587014 L16.9433041,14.2518435 L16.9511153,14.2390917 L16.9548173,14.2322338 L16.9626285,14.2194819 L16.9663305,14.2126241 L16.9731792,14.2003541 L16.9768812,14.1934963 L16.9837298,14.1812634 L16.9874318,14.1744056 L16.9942805,14.1621727 L16.9969829,14.1558338 L17.0038316,14.1436009 L17.0124202,14.125511 L17.015641,14.1200989 L17.0247478,14.1029358 L17.030634,14.0911848 L17.0338547,14.0857726 L17.0397409,14.0740216 L17.0488478,14.0568585 L17.0520685,14.0514464 L17.0579547,14.0396954 L17.0611754,14.0342832 L17.066136,14.0231624 L17.0693568,14.0177503 L17.0743174,14.0066295 L17.0765756,14.0017363 L17.0819805,13.9890586 L17.0893845,13.9729334 L17.105118,13.9363088 L17.105118,13.9363088 L17.1055622,13.9348631 C17.2747849,13.5166972 17.3145877,13.057255 17.2198055,12.6161564 L17.2192872,12.6151926 L17.2187689,12.6142288 L17.2182507,12.613265 L17.2177324,12.6123012 L17.2172141,12.6113374 L17.2166958,12.6103736 L17.2161776,12.6094097 L17.2156593,12.6084459 L17.2073668,12.5725628 L17.2073668,12.5725628 L17.2073668,12.5701533 L17.2068486,12.5691895 L17.2063303,12.5682256 L17.205812,12.5672618 L17.2052937,12.566298 L17.2047754,12.5653342 L17.2042572,12.5643704 L17.2037389,12.5634066 L17.2032206,12.5624428 L17.2027023,12.561479 L17.2021841,12.5605152 L17.2016658,12.5595514 L17.2011475,12.5585876 L17.2006292,12.5576238 L17.1985931,12.5539169 C17.1942248,12.5367167 17.190819,12.5189975 17.1854881,12.5022792 C17.1837111,12.4923075 17.1812308,12.4740694 17.1801572,12.4540519 L17.1730124,12.4407811 C17.1693104,12.4293266 17.1665339,12.4173532 17.1623137,12.404972 L17.1617954,12.4040082 L17.1612771,12.4030444 L17.1607588,12.4020806 L17.1602405,12.4011168 L17.1597223,12.400153 L17.159204,12.3991892 L17.1581674,12.3972987 C17.0291526,11.9652413 16.7733627,11.5820183 16.4240265,11.2974126 L16.4235082,11.2964488 C16.4131797,11.288553 16.4023328,11.2797305 16.3919673,11.2718718 L16.3776776,11.2612328 L16.3629067,11.2496672 L16.3530594,11.2427352 L16.348617,11.2390283 L16.3387697,11.2320963 L16.3343274,11.2283894 L16.3239988,11.2205306 L16.3185939,11.2173056 L16.3082654,11.2094469 L16.3028605,11.2062219 L16.2917545,11.198808 L16.2863496,11.1955829 L16.2797971,11.1856483 L16.2739109,11.1814966 L16.262805,11.1740827 L16.2569188,11.1699309 L16.2456278,11.162517 L16.2397416,11.1583653 L16.2286356,11.1509514 L16.2109401,11.1384961 L16.205054,11.1343443 L16.1923192,11.1265227 L16.186433,11.1223709 L16.1736982,11.1145492 L16.149191,11.0984241 L16.1364562,11.0906024 L16.1296075,11.0868955 L16.1168727,11.0790738 L16.110024,11.0753669 L16.0963266,11.067953 L16.089478,11.0642461 L16.0331337,11.032144 L16.0257298,11.0275474 L16.0115141,11.019318 L16.0041102,11.0147214 L15.988969,11.0069738 L15.9815651,11.0023772 L15.9664239,10.9946297 L15.9561694,10.9891435 L15.9556512,10.9881797 C15.9482472,10.9835831 15.94051,10.9804322 15.9331431,10.9758356 C15.6188751,10.8140957 15.279555,10.7067366 14.9295345,10.6582991 C15.0276974,10.5526636 15.1175884,10.4396135 15.1984098,10.3201521 L15.2112927,10.3009872 L15.2122552,10.3004682 L15.2182154,10.2911267 L15.2260266,10.2783748 L15.2301729,10.2724808 L15.2379841,10.2597289 L15.2421303,10.2538349 L15.2499415,10.241083 L15.2540877,10.235189 L15.2618989,10.2224371 L15.2660451,10.2165431 L15.2738563,10.2037912 L15.2780025,10.1978972 L15.2848512,10.1856272 L15.2889974,10.1797332 L15.2958461,10.1674632 L15.2990668,10.1620511 L15.3059155,10.1497811 L15.3091362,10.144369 L15.3159849,10.132099 L15.3192056,10.1266869 L15.3250918,10.1149359 L15.3283125,10.1095237 L15.3341987,10.0977727 L15.3374194,10.0923606 L15.3433056,10.0806096 L15.3465263,10.0751975 L15.3528937,10.0644103 L15.3561144,10.0589982 L15.3625189,10.048211 L15.3657396,10.0427988 L15.3744393,10.0271185 L15.3799182,10.0168502 L15.3821764,10.0119571 L15.3876554,10.0016889 L15.3899136,9.99679571 L15.3953925,9.98652748 L15.3976507,9.98163432 L15.4031297,9.9713661 L15.4099043,9.95668662 L15.4121625,9.95179346 L15.4166789,9.94200714 L15.4189372,9.93711398 L15.4234536,9.92732766 L15.4257118,9.9224345 L15.4306725,9.91131368 L15.4374471,9.89648592 C15.4424077,9.8853651 15.4464059,9.87454083 15.4513666,9.86330881 L15.4523291,9.86278984 C15.6029399,9.49106712 15.6382478,9.08253841 15.5536524,8.69043308 L15.5531342,8.68946928 L15.5520976,8.68757874 L15.5515793,8.68661493 L15.5510611,8.68565113 L15.5505428,8.68468732 L15.5500245,8.68372352 L15.5489879,8.68179591 C15.5467297,8.67067509 15.5444715,8.65977669 15.5412878,8.64924898 L15.5412878,8.64683947 L15.5407695,8.64587566 L15.5402513,8.64491186 L15.5356608,8.6363859 C15.532329,8.62107624 15.5289602,8.60576658 15.5241476,8.59001208 C15.5208158,8.57470242 15.5160032,8.55894793 15.5117089,8.54412017 L15.5061189,8.53370367 L15.5050824,8.53181313 C15.5018617,8.52132249 15.4986779,8.51079478 15.4954572,8.50030414 L15.4949389,8.49934034 L15.4944207,8.49837653 L15.4939024,8.49741273 L15.4933841,8.49644892 L15.4928658,8.49548512 L15.4923475,8.49452132 L15.4918663,8.49355751 C15.3772881,8.10906602 15.1497152,7.76804439 14.8387988,7.51492543 L14.8383176,7.51396162 C14.8294328,7.50654774 14.8195855,7.4995787 14.8107008,7.49216482 L14.7984102,7.48289747 L14.7885629,7.47596549 L14.7841205,7.47225855 L14.775754,7.46577141 L14.7713116,7.46206447 L14.7629451,7.45557732 L14.7585028,7.45187038 L14.7491738,7.44590221 L14.7447314,7.44219527 L14.7348841,7.43526329 L14.7304417,7.43155635 L14.7205944,7.42462437 L14.716152,7.42091743 L14.7063048,7.41398546 L14.7008999,7.41076042 L14.6910526,7.40382844 L14.6856477,7.40060341 L14.6758004,7.39367143 L14.6703955,7.39044639 L14.6596227,7.38403338 L14.6542178,7.38080835 L14.643445,7.37439534 L14.6380401,7.3711703 L14.6272673,7.3647573 L14.6218624,7.36153226 L14.6110897,7.35511925 L14.6056848,7.35189422 L14.5943937,7.34448034 L14.5889888,7.3412553 L14.5776977,7.33384142 L14.5722928,7.33061638 L14.5600393,7.32375854 L14.5546344,7.32053351 L14.5424178,7.31367567 L14.5365317,7.3095239 L14.5242781,7.30266606 L14.5183919,7.29851429 L14.5061754,7.29165645 L14.5002892,7.28750467 L14.4875544,7.27968303 L14.4807057,7.27597609 L14.4679709,7.26815445 L14.4611222,7.26444751 L14.4474248,7.25703363 L14.4268788,7.24591281 L14.4171056,7.24139034 L14.4165873,7.24042654 L14.3960413,7.22930572 C13.7958012,6.91692191 13.033229,6.82287685 12.2659923,7.01997484 L12.0664182,7.07127888 L11.5616153,5.10289389 Z M14.1629272,12.1841867 L14.175588,12.1895988 L14.1819184,12.1923049 L14.1911733,12.1960118 L14.1955417,12.1973093 L14.2038341,12.2013869 L14.2082025,12.2026843 L14.2208633,12.2080594 L14.2291557,12.212137 L14.2325615,12.2139534 L14.240854,12.2180311 L14.2442598,12.2198475 L14.2525523,12.2239251 L14.2559581,12.2257415 L14.2642505,12.2298191 L14.2676564,12.2316355 L14.274505,12.2353425 L14.2779109,12.2371589 L14.2847595,12.2408658 L14.2881654,12.2426822 L14.2950141,12.2463891 L14.2984199,12.2482055 L14.3052686,12.2519125 L14.3086744,12.2537289 L14.3155231,12.2574358 L14.3189289,12.2592522 L14.3257776,12.2629592 L14.3291834,12.2647756 L14.3360321,12.2684825 L14.3394379,12.2702989 L14.3462866,12.2740058 L14.3496924,12.2758222 L14.3565411,12.2795292 L14.3658331,12.2854974 L14.3692389,12.2873138 L14.393709,12.3034019 L14.3971148,12.3052183 L14.4064068,12.3111864 L14.4118117,12.3144115 L14.4152176,12.3162279 L14.4211037,12.3203797 L14.4289519,12.3259401 L14.4382485,12.3319268 L14.4382485,12.3319268 L14.4474619,12.3379135 C14.6029167,12.4434743 14.7262765,12.5885842 14.8055965,12.757191 L14.8566424,12.8878009 L14.8586785,12.8915079 L14.8644906,12.9091529 L14.8644906,12.9091529 L14.8650089,12.9101167 L14.8680816,12.9157883 C14.8702657,12.9243884 14.8724499,12.9329885 14.8751524,12.9425524 L14.87953,12.9513147 L14.8794096,12.9675372 L14.8824823,12.9732088 L14.8830006,12.9741726 L14.8849626,12.9834956 L14.8869247,12.9927073 L14.887443,12.9936711 L14.8879612,12.9946349 L14.8884795,12.9955987 L14.8889978,12.9965625 C14.9259144,13.1810107 14.9120785,13.3711243 14.8502536,13.5469468 L14.7949303,13.6758222 L14.7844537,13.6949129 L14.779419,13.7037354 L14.775717,13.7105933 L14.773903,13.7140036 L14.7706823,13.7194158 L14.7688683,13.7228262 L14.7656476,13.7282383 L14.7537272,13.7468471 L14.7519132,13.7502575 L14.7358466,13.7747604 L14.7340326,13.7781708 L14.7298864,13.7840648 L14.7280724,13.7874752 L14.7239262,13.7933692 L14.7221122,13.7967796 L14.717966,13.8026736 L14.716152,13.806084 L14.7120058,13.8119781 L14.7101918,13.8153884 L14.7050831,13.8218015 L14.7032691,13.8252118 L14.6981604,13.8316248 L14.6963464,13.8350352 L14.6917559,13.8424491 L14.689942,13.8458595 L14.6853515,13.8532734 L14.6835375,13.8566838 L14.6789471,13.8640976 L14.6761706,13.868027 L14.6715801,13.8754409 L14.6688036,13.8793702 L14.6632506,13.8872289 L14.6549212,13.899017 L14.6521447,13.9029464 L14.6438152,13.9147344 L14.6382252,13.9225931 L14.6298958,13.9343812 L14.6252312,13.9393485 L14.6164205,13.9502098 C14.3551713,14.2842793 13.9337742,14.5590747 13.4219746,14.690634 C13.0991984,14.7740772 12.123947,15.0294853 11.8866497,15.0901309 L11.2226984,12.503243 C11.4596256,12.4416337 12.4374683,12.1957894 12.7602075,12.1123462 C13.2720441,11.9807869 13.7745518,12.0181158 14.1629272,12.1841867 Z M12.7955244,8.70025647 L12.8066304,8.70522377 L12.811517,8.707485 L12.8183657,8.71119194 L12.8217715,8.71300834 L12.8286202,8.71671528 L12.832026,8.71853168 L12.8388747,8.72223862 L12.8422805,8.72405502 L12.8491292,8.72776196 L12.852535,8.72957836 L12.8593837,8.7332853 L12.8627895,8.7351017 L12.8696382,8.73880864 L12.873044,8.74062504 L12.8798927,8.74433198 L12.8832985,8.74614838 L12.8901472,8.74985532 L12.893553,8.75167172 L12.9004017,8.75537866 L12.9096937,8.76134684 L12.9130995,8.76316324 L12.9189857,8.76731501 L12.9223915,8.76913141 L12.9316835,8.77509958 L12.9370884,8.77832462 L12.9404942,8.78014102 L12.9458991,8.78336606 L12.9493049,8.78518246 L12.9547098,8.7884075 L12.9581157,8.7902239 L12.9635206,8.79344893 L12.9669264,8.79526534 L12.9723313,8.79849037 L12.9748116,8.80082574 L12.9802165,8.80405078 L12.9821786,8.80542235 L12.9875835,8.80864739 L12.9895455,8.81001896 L12.9949504,8.81324399 L13.0023174,8.8178406 L13.0042794,8.81921217 L13.0087218,8.82291911 L13.0106839,8.82429067 L13.0160888,8.82751571 L13.0234927,8.83211232 L13.0313595,8.83767273 L13.0392262,8.84323314 C13.1755202,8.94625848 13.2828956,9.08179165 13.3521319,9.236606 L13.396764,9.35612531 L13.3982819,9.35897966 C13.3998737,9.36424351 13.4019838,9.3704341 13.4035757,9.37569796 L13.404094,9.37666176 L13.4071666,9.38233338 C13.4093508,9.39093348 13.4119792,9.39808787 13.4141634,9.40668797 C13.4165471,9.41546961 13.4181087,9.42445451 13.4188279,9.43352622 L13.4219005,9.43919783 L13.4224188,9.44016164 C13.4232457,9.44603709 13.4247105,9.45180464 13.4267872,9.45736184 L13.428305,9.46021618 C13.4633063,9.6274546 13.4553807,9.80013128 13.4062328,9.96234541 L13.3616692,10.0817958 L13.3540061,10.0993667 L13.3499339,10.1076703 L13.3467132,10.1130824 L13.3458247,10.1160109 L13.3435665,10.120904 L13.342678,10.1238325 L13.3394573,10.1292447 L13.3385688,10.1321731 L13.3353481,10.1375853 L13.3344596,10.1405138 L13.3312389,10.1459259 L13.3303504,10.1488544 L13.3271297,10.1542665 L13.3262412,10.157195 L13.3230205,10.1626071 L13.322132,10.1655356 L13.3189113,10.1709477 L13.3170973,10.1743581 L13.3138766,10.1797703 L13.3120626,10.1831806 L13.3088419,10.1885928 L13.3070279,10.1920032 L13.3038072,10.1974153 L13.297847,10.2067197 L13.296033,10.2101301 L13.2918868,10.2160241 L13.2900728,10.2194345 L13.2859266,10.2253285 L13.2841126,10.2287389 L13.2799664,10.234633 L13.2781524,10.2380433 L13.2740062,10.2439374 L13.2721922,10.2473478 L13.2561256,10.2718506 L13.2543116,10.275261 L13.2492029,10.281674 L13.2473889,10.2850844 L13.2422802,10.2914974 L13.2404662,10.2949078 L13.2353574,10.3013208 L13.2335435,10.3047312 L13.2284347,10.3111442 L13.2247327,10.3155925 L13.21781,10.325453 C13.0026876,10.627272 12.6501474,10.8711145 12.2175703,10.9819891 C11.944956,11.051902 11.1217823,11.2680165 10.9223933,11.3193206 L10.3070121,8.93724113 C10.5065862,8.88593708 11.331759,8.6784226 11.603855,8.60758298 C12.0364321,8.49670841 12.4627158,8.53974598 12.7955244,8.70025647 Z" id="bch-logo"></path>
                </g>
            </g>
        </g>
    </g>
</svg>