<?xml version="1.0" encoding="UTF-8"?>
<svg width="23px" height="22px" viewBox="0 0 23 22" version="1.1" xmlns="http://www.w3.org/2000/svg" xmlns:xlink="http://www.w3.org/1999/xlink">
    <!-- Generator: sketchtool 59.1 (101010) - https://sketch.com -->
    <title>A8677FD2-F4C3-4A39-A7CC-BDC272D35831</title>
    <desc>Created with sketchtool.</desc>
    <defs>
        <linearGradient x1="79.4890195%" y1="92.7978516%" x2="12.188866%" y2="15.5476888%" id="linearGradient-1">
            <stop stop-color="#D09A19" offset="0%"></stop>
            <stop stop-color="#FFDA80" offset="28.5865499%"></stop>
            <stop stop-color="#F5C040" offset="100%"></stop>
        </linearGradient>
    </defs>
    <g id="Asset-Artboard-Page" stroke="none" stroke-width="1" fill="none" fill-rule="evenodd">
        <g id="01__assets-/-logos-/-btc-01__assets-/-logos-/-logo-btc--bth" transform="translate(-0.400002, -1.000000)">
            <g id="bitcoin-logo" transform="translate(1.000000, 1.000000)">
                <path d="M21.6513299,13.6590236 C20.1833179,19.5472154 14.2192164,23.1303489 8.3303299,21.6623369 C2.4441956,20.1943249 -1.13928082,14.2302234 0.329074101,8.3423745 C1.79640024,2.45348801 7.76015883,-1.13033133 13.6473307,0.337680655 C19.5358655,1.80569265 23.118999,7.77048002 21.650987,13.6590236 L21.6513299,13.6590236 Z" id="Fill-1" fill="url(#linearGradient-1)"></path>
                <path d="M13.4532629,9.41263845 C13.1132213,10.7748623 11.0145867,10.0827592 10.3334747,9.91308129 L10.933876,7.5053211 C11.6149879,7.67499896 13.8077337,7.99167762 13.4532629,9.41263845 L13.4532629,9.41263845 Z M13.0805906,13.2980301 C12.7075755,14.7955865 10.1864739,13.9863523 9.36865779,13.7830149 L10.0308736,11.1282955 C10.8483468,11.3323187 13.4694068,11.73625 13.0809336,13.2980301 L13.0805906,13.2980301 Z M15.8362973,9.43427794 C16.0547409,7.97176155 14.9411998,7.18554732 13.4185747,6.66105572 L13.9124931,4.67989504 L12.7062038,4.37935148 L12.2253428,6.30830831 C11.9086554,6.22931231 11.5830431,6.15477434 11.2594883,6.08093102 L11.7437873,4.13925955 L10.5385355,3.83872478 L10.0442741,5.8191996 C9.78185683,5.75943381 9.52424932,5.70036267 9.27420376,5.63818761 L9.27557546,5.63200616 L7.61246515,5.21674956 L7.29166259,6.50477834 C7.29166259,6.50477834 8.18641719,6.7098303 8.1675211,6.72254492 C8.65594396,6.84447698 8.74455947,7.16768881 8.72944436,7.42391583 L8.16683525,9.68089424 C8.20049472,9.68947618 8.24411663,9.70184788 8.29220536,9.7210781 L8.16511183,9.68947618 L7.3761542,12.8511716 C7.31638841,12.9995529 7.16491199,13.2221205 6.82349872,13.1376289 C6.83551871,13.1551444 5.94695436,12.9188335 5.94695436,12.9188335 L5.3482765,14.2996017 L6.91795276,14.6908183 C7.2099056,14.7639846 7.4960287,14.8405801 7.77733325,14.9127088 L7.27826211,16.9168894 L8.48283685,17.2174242 L8.97744117,15.2348831 C9.30613981,15.3241932 9.62557946,15.4066273 9.93813421,15.4842516 L9.44559624,17.4575161 L10.6515339,17.7580597 L11.150605,15.758003 C13.2069895,16.1471532 14.7536634,15.99019 15.4038592,14.1306185 C15.928342,12.6330621 15.3780958,11.7692236 14.2961478,11.2055769 C15.0840855,11.0231932 15.6776106,10.5048918 15.8359544,9.43427794 L15.8362973,9.43427794 Z" id="Fill-4" fill="#131E29"></path>
            </g>
        </g>
    </g>
</svg>