<?xml version="1.0" encoding="UTF-8"?>
<svg width="22px" height="22px" viewBox="0 0 22 22" version="1.1" xmlns="http://www.w3.org/2000/svg" xmlns:xlink="http://www.w3.org/1999/xlink">
    <!-- Generator: sketchtool 58 (101010) - https://sketch.com -->
    <title>157D340E-E68B-4B84-8726-537931665D47</title>
    <desc>Created with sketchtool.</desc>
    <g id="🛬-Landing-Page" stroke="none" stroke-width="1" fill="none" fill-rule="evenodd">
        <g id="BTH__Account--balance" transform="translate(-900.000000, -340.000000)" fill-rule="nonzero">
            <g id="01__assets-/-logos-/-eos-copy-2-01__assets-/-logos-/-ltc" transform="translate(899.000000, 339.000000)">
                <g id="litcoin-logo" transform="translate(1.000000, 1.000000)">
                    <path d="M10.9469879,-7.10542736e-15 C4.90361447,-7.10542736e-15 -7.10542736e-15,4.90361447 -7.10542736e-15,10.9469879 C-7.10542736e-15,16.9903615 4.90361447,21.8939759 10.9469879,21.8939759 C16.9903615,21.8939759 21.8940828,16.9903615 21.8940828,10.9469879 C21.9204819,4.90361447 17.0168675,-7.10542736e-15 10.9469879,-7.10542736e-15 Z" id="Path" fill="#345D9D"></path>
                    <path d="M16.0891566,15.1614458 L9.9927711,15.1614458 L11.1325301,11.3180723 L12.8819277,10.8144578 L13.2530121,9.54216869 L11.5036145,10.0722891 L13.3590361,3.76385542 C13.3590361,3.7373494 13.3590361,3.71084337 13.3590361,3.68433734 C13.3590361,3.49879518 13.226506,3.36626507 13.0409639,3.36626507 L10.6819277,3.36626507 C10.4963855,3.36626507 10.3373494,3.49879518 10.2843373,3.68433734 L8.11084337,11.1325301 L6.36144578,11.6626506 L5.96385542,12.9084337 L7.71325301,12.3783133 L6.14939759,17.7060241 L15.4530121,17.7060241 C15.6385542,17.7060241 15.7975904,17.573494 15.8506024,17.4144578 L16.3807229,15.5855422 C16.3807229,15.5590361 16.3807229,15.5325301 16.3807229,15.5060241 C16.4072289,15.2939759 16.2746988,15.1614458 16.0891566,15.1614458 Z" id="Path" fill="#FFFFFF"></path>
                </g>
            </g>
        </g>
    </g>
</svg>