<?xml version="1.0" encoding="UTF-8"?>
<svg width="22px" height="22px" viewBox="0 0 22 22" version="1.1" xmlns="http://www.w3.org/2000/svg" xmlns:xlink="http://www.w3.org/1999/xlink">
    <!-- Generator: sketchtool 59.1 (101010) - https://sketch.com -->
    <title>69DEA238-F8EA-40A3-843C-40A58B95EE40</title>
    <desc>Created with sketchtool.</desc>
    <g id="🛬-Be-The-House" stroke="none" stroke-width="1" fill="none" fill-rule="evenodd">
        <g id="BTH__Account--mblance" transform="translate(-50.000000, -349.000000)" fill-rule="nonzero">
            <g id="01__assets-/-logos-/-eos-copy-8-01__assets-/-logos-/-ltc-copy" transform="translate(49.000000, 348.000000)">
                <g id="litcoin-logo" transform="translate(1.000000, 1.000000)">
                    <path d="M10.9469879,0 C4.90361447,0 0,4.90361447 0,10.9469879 C0,16.9903615 4.90361447,21.8939759 10.9469879,21.8939759 C16.9903615,21.8939759 21.8940828,16.9903615 21.8940828,10.9469879 C21.9204819,4.90361447 17.0168675,0 10.9469879,0 Z" id="Path" fill="#000000"></path>
                    <path d="M14.108592,12.27512 L15.917552,14.08216 L10.999872,19 L6.084592,14.0848 L6.082032,14.08224 L7.892672,12.27664 L10.999872,15.38376 L14.108592,12.27512 Z M10.999872,9.1644 L12.834512,10.99904 L12.835392,10.99992 L10.999872,12.8356 L9.166912,11.00256 L9.164352,10.99992 L9.166912,10.99744 L9.488192,10.67608 L9.643952,10.52024 L9.644032,10.52024 L10.999872,9.1644 Z M17.192112,9.192696 L19.000048,11.000632 L17.192,12.808688 L15.384056,11.000744 L17.192112,9.192696 Z M4.808056,9.191696 L6.615992,10.99964 L4.807952,12.80768 L3,10.999752 L4.808056,9.191696 Z M10.999872,3 L15.916672,7.91696 L14.108672,9.72496 L10.999872,6.61624 L7.892672,9.72336 L6.084752,7.91536 L10.999872,3 Z" id="Combined-Shape" fill="#F3BA2F"></path>
                </g>
            </g>
        </g>
    </g>
</svg>